<?xml version="1.0" encoding="UTF-8" standalone="no"?>
<svg
   xmlns:dc="http://purl.org/dc/elements/1.1/"
   xmlns:cc="http://creativecommons.org/ns#"
   xmlns:rdf="http://www.w3.org/1999/02/22-rdf-syntax-ns#"
   xmlns:svg="http://www.w3.org/2000/svg"
   xmlns="http://www.w3.org/2000/svg"
   xmlns:sodipodi="http://sodipodi.sourceforge.net/DTD/sodipodi-0.dtd"
   xmlns:inkscape="http://www.inkscape.org/namespaces/inkscape"
   width="210mm"
   height="297mm"
   viewBox="0 0 210 297"
   version="1.1"
   id="svg8"
   sodipodi:docname="press.svg"
   inkscape:export-filename="D:\OneDrive - Politechnika Wroclawska\projectsPython\imageCompressor\icons\g920.png"
   inkscape:export-xdpi="1290.62"
   inkscape:export-ydpi="1290.62"
   inkscape:version="1.0.1 (3bc2e813f5, 2020-09-07)">
  <defs
     id="defs2" />
  <sodipodi:namedview
     id="base"
     pagecolor="#ffffff"
     bordercolor="#666666"
     borderopacity="1.0"
     inkscape:pageopacity="0.0"
     inkscape:pageshadow="2"
     inkscape:zoom="11.2"
     inkscape:cx="252.21637"
     inkscape:cy="405.78054"
     inkscape:document-units="mm"
     inkscape:current-layer="layer1"
     inkscape:document-rotation="0"
     showgrid="false"
     inkscape:window-width="1267"
     inkscape:window-height="1040"
     inkscape:window-x="182"
     inkscape:window-y="0"
     inkscape:window-maximized="0" />
  <metadata
     id="metadata5">
    <rdf:RDF>
      <cc:Work
         rdf:about="">
        <dc:format>image/svg+xml</dc:format>
        <dc:type
           rdf:resource="http://purl.org/dc/dcmitype/StillImage" />
      </cc:Work>
    </rdf:RDF>
  </metadata>
  <g
     inkscape:label="Layer 1"
     inkscape:groupmode="layer"
     id="layer1">
    <g
       id="g920"
       transform="matrix(0.26458333,0,0,0.26458333,63.774033,105.72939)"
       inkscape:export-xdpi="312.69467"
       inkscape:export-ydpi="312.69467">
      <g
         id="g854">
	<path
   fill="#303c42"
   d="M 22,3 H 2 C 0.8969727,3 0,3.8969727 0,5 v 14 c 0,1.103027 0.8969727,2 2,2 h 20 c 1.103027,0 2,-0.896973 2,-2 V 5 C 24,3.8969727 23.103027,3 22,3 Z"
   id="path833" />

	<path
   fill="#57c1ef"
   d="M 1,5 C 1,4.4487305 1.4487305,4 2,4 h 20 c 0.551269,0 1,0.4487305 1,1 V 17.292969 L 15.353516,9.6464844 c -0.195313,-0.1953125 -0.511719,-0.1953125 -0.707032,0 L 8.5,15.792969 6.3535156,13.646484 c -0.1953125,-0.195312 -0.5117188,-0.195312 -0.7070313,0 L 1,18.292969 Z"
   id="path835" />

	<path
   fill="#7cb342"
   d="M 22,20 H 2 C 1.6485596,20 1.3536377,19.806885 1.1752319,19.531799 L 6,14.707031 9.1464844,17.853516 c 0.1953125,0.195312 0.5117188,0.195312 0.7070313,0 0.1953123,-0.195313 0.1953123,-0.511719 0,-0.707032 L 9.2070313,16.5 15,10.707031 l 8,8 V 19 c 0,0.551269 -0.448731,1 -1,1 z"
   id="path837" />

	<path
   opacity="0.1"
   fill="#010101"
   d="m 22.636719,18.34375 c -0.180176,0.264404 -0.468689,0.449219 -0.811951,0.449219 H 1.9140625 l -0.7388306,0.73883 C 1.3536377,19.806885 1.6485596,20 2,20 h 20 c 0.551269,0 1,-0.448731 1,-1 v -0.292969 z"
   id="path839" />

	<circle
   fill="#303c42"
   cx="8"
   cy="9"
   r="3"
   id="circle841" />

	<circle
   fill="#ffcb29"
   cx="8"
   cy="9"
   r="2"
   id="circle843" />

	<polygon
   opacity="0.1"
   fill="#010101"
   points="14.979187,10.727844 17.281555,12.988586 15,10.707031 "
   id="polygon845" />

	<linearGradient
   id="SVGID_1_"
   gradientUnits="userSpaceOnUse"
   x1="-0.70768023"
   y1="6.0743113"
   x2="24.70768"
   y2="17.925688">
		<stop
   offset="0"
   style="stop-color:#FFFFFF;stop-opacity:0.2"
   id="stop847" />

		<stop
   offset="1"
   style="stop-color:#FFFFFF;stop-opacity:0"
   id="stop849" />

	</linearGradient>

	<path
   fill="url(#SVGID_1_)"
   d="M 22,3 H 2 C 0.8969727,3 0,3.8969727 0,5 v 14 c 0,1.103027 0.8969727,2 2,2 h 20 c 1.103027,0 2,-0.896973 2,-2 V 5 C 24,3.8969727 23.103027,3 22,3 Z"
   id="path852"
   style="fill:url(#SVGID_1_)" />

</g>
      <g
         id="g856">
</g>
      <g
         id="g858">
</g>
      <g
         id="g860">
</g>
      <g
         id="g862">
</g>
      <g
         id="g864">
</g>
      <g
         id="g866">
</g>
      <g
         id="g868">
</g>
      <g
         id="g870">
</g>
      <g
         id="g872">
</g>
      <g
         id="g874">
</g>
      <g
         id="g876">
</g>
      <g
         id="g878">
</g>
      <g
         id="g880">
</g>
      <g
         id="g882">
</g>
      <g
         id="g884">
</g>
    </g>
    <path
       style="fill:none;stroke:#000000;stroke-width:0.642588;stroke-linecap:butt;stroke-linejoin:miter;stroke-miterlimit:4;stroke-dasharray:none;stroke-opacity:1"
       d="m 66.95032,102.85835 v 2.86939"
       id="path922"
       inkscape:export-xdpi="312.69467"
       inkscape:export-ydpi="312.69467" />
    <path
       style="fill:none;stroke:#000000;stroke-width:0.75;stroke-linecap:butt;stroke-linejoin:miter;stroke-opacity:1;stroke-miterlimit:4;stroke-dasharray:none"
       d="m 64.07144,105.84012 h 5.679479"
       id="path926"
       inkscape:export-xdpi="312.69467"
       inkscape:export-ydpi="312.69467" />
    <path
       style="fill:none;stroke:#000000;stroke-width:0.4;stroke-linecap:butt;stroke-linejoin:miter;stroke-opacity:1;stroke-miterlimit:4;stroke-dasharray:none"
       d="m 63.485039,104.66456 v 6.974 h 6.943518 v -6.98789"
       id="path930"
       inkscape:export-xdpi="312.69467"
       inkscape:export-ydpi="312.69467" />
    <path
       style="fill:none;stroke:#000000;stroke-width:0.75;stroke-linecap:butt;stroke-linejoin:miter;stroke-miterlimit:4;stroke-dasharray:none;stroke-opacity:1"
       d="m 65.531621,102.73865 h 2.811198"
       id="path944"
       inkscape:export-xdpi="312.69467"
       inkscape:export-ydpi="312.69467" />
    <ellipse
       id="path950"
       style="fill:#000000;stroke:none;stroke-width:0.554649"
       cx="65.183586"
       cy="102.71"
       rx="0.92290795"
       ry="0.75" />
    <ellipse
       id="path950-8"
       style="fill:#000000;stroke:none;stroke-width:0.554649"
       cx="68.697174"
       cy="102.71"
       rx="0.92290795"
       ry="0.75" />
  </g>
</svg>
